<svg width="25" height="21" viewBox="0 0 25 21" fill="none" xmlns="http://www.w3.org/2000/svg">
<path fill-rule="evenodd" clip-rule="evenodd" d="M11.1065 18.5769V15.3462C9.18745 15.0769 5.08368 13.9731 4.02083 11.7115V10.9039C2.69227 10.7693 0.0351562 9.93465 0.0351562 7.67311V1.61542H4.02083V0H12.4346H12.435H20.8488V1.61542H24.8345V7.67311C24.8345 9.93464 22.1774 10.7693 20.8488 10.9039V11.7115C19.786 13.9731 15.6822 15.0769 13.7632 15.3462V18.5769H18.1913L19.5198 21H4.90568L6.67709 18.5769H11.1065ZM4.02083 4.03849H2.69227V7.26926C2.69227 7.67311 2.95799 8.4808 4.02083 8.4808V4.03849ZM20.8488 8.4808V4.03849H22.1774V7.26926C22.1774 7.67311 21.9116 8.48079 20.8488 8.4808ZM12.4345 1.61542L11.106 4.84619H7.1203L10.6226 6.9904L8.89172 10.0842L12.4345 8.59103L16.4202 10.0842L14.1654 6.9904L17.7488 4.84619H13.7631L12.4345 1.61542Z" fill="#F1CD5F"/>
</svg>
