<svg width="58" height="58" viewBox="0 0 58 58" fill="none" xmlns="http://www.w3.org/2000/svg">
<path d="M36.25 7.25V16.9167C36.25 17.5576 36.5046 18.1723 36.9578 18.6255C37.411 19.0787 38.0257 19.3333 38.6667 19.3333H48.3333" stroke="#232324" stroke-width="2" stroke-linecap="round" stroke-linejoin="round"/>
<path d="M43.5 41.0833H26.5833C25.3015 41.0833 24.0721 40.5741 23.1657 39.6677C22.2592 38.7613 21.75 37.5319 21.75 36.25V12.0833C21.75 10.8015 22.2592 9.57208 23.1657 8.66565C24.0721 7.75922 25.3015 7.25 26.5833 7.25H36.25L48.3333 19.3333V36.25C48.3333 37.5319 47.8241 38.7613 46.9177 39.6677C46.0113 40.5741 44.7819 41.0833 43.5 41.0833Z" stroke="#232324" stroke-width="2" stroke-linecap="round" stroke-linejoin="round"/>
<path d="M38.6668 41.0833V45.9167C38.6668 47.1986 38.1576 48.4279 37.2512 49.3344C36.3448 50.2408 35.1154 50.75 33.8335 50.75H16.9168C15.635 50.75 14.4056 50.2408 13.4991 49.3344C12.5927 48.4279 12.0835 47.1986 12.0835 45.9167V21.75C12.0835 20.4681 12.5927 19.2387 13.4991 18.3323C14.4056 17.4259 15.635 16.9167 16.9168 16.9167H21.7502" stroke="#232324" stroke-width="2" stroke-linecap="round" stroke-linejoin="round"/>
</svg>
